<?xml version="1.0" encoding="UTF-8"?>
<svg width="24px" height="24px" viewBox="0 0 24 24" version="1.1" xmlns="http://www.w3.org/2000/svg" xmlns:xlink="http://www.w3.org/1999/xlink">
    <!-- Generator: Sketch 53 (72520) - https://sketchapp.com -->
    <title>邮件</title>
    <desc>Created with Sketch.</desc>
    <g id="邮件" stroke="none" stroke-width="1" fill="none" fill-rule="evenodd">
        <g id="Group" transform="translate(0.000000, 3.000000)" fill="#FFFFFF" fill-rule="nonzero">
            <g id="邮件-copy">
                <path d="M20.4274805,0.2477728 L2.4272363,0.2477728 C1.32477966,0.2477728 0.428573257,1.1439792 0.428573257,2.24643584 L0.428573257,14.8939952 C0.428573257,15.9964518 1.32477966,16.8926582 2.4272363,16.8926582 L20.4299358,16.8926582 C21.5323925,16.8926582 22.4285989,15.9964518 22.4285989,14.8939952 L22.4285989,2.24643584 C22.4261435,1.1439792 21.5299371,0.2477728 20.4274805,0.2477728 Z M20.4274805,1.6227744 C20.5281502,1.6227744 20.6189985,1.65223872 20.7024808,1.69397984 L11.4285861,8.38483584 L2.15223598,1.69397984 C2.23571822,1.65223872 2.32656654,1.6227744 2.4272363,1.6227744 L20.4274805,1.6227744 Z M20.4274805,15.520112 L2.4272363,15.520112 C2.0834859,15.520112 1.80357486,15.240201 1.80357486,14.8964506 L1.80357486,3.14018688 L11.4285861,10.0814896 L21.0535973,3.14018688 L21.0535973,14.8939952 C21.0511419,15.240201 20.7712309,15.520112 20.4274805,15.520112 Z" id="Shape"></path>
            </g>
        </g>
    </g>
</svg>